<?xml version="1.0" encoding="utf-8" standalone="no"?>
<!DOCTYPE svg PUBLIC "-//W3C//DTD SVG 1.1//EN"
  "http://www.w3.org/Graphics/SVG/1.1/DTD/svg11.dtd">
<!-- Created with matplotlib (https://matplotlib.org/) -->
<svg height="288pt" version="1.1" viewBox="0 0 432 288" width="432pt" xmlns="http://www.w3.org/2000/svg" xmlns:xlink="http://www.w3.org/1999/xlink">
 <defs>
  <style type="text/css">
*{stroke-linecap:butt;stroke-linejoin:round;}
  </style>
 </defs>
 <g id="figure_1">
  <g id="patch_1">
   <path d="M 0 288 
L 432 288 
L 432 0 
L 0 0 
z
" style="fill:#ffffff;"/>
  </g>
  <g id="axes_1">
   <g id="LineCollection_1">
    <path clip-path="url(#p147713b037)" d="M 30.980089 159.372637 
L 69.845564 224.504071 
" style="fill:none;stroke:#000000;"/>
    <path clip-path="url(#p147713b037)" d="M 30.980089 159.372637 
L 112.916922 117.030462 
" style="fill:none;stroke:#000000;"/>
    <path clip-path="url(#p147713b037)" d="M 30.980089 159.372637 
L 29.656015 23.446166 
" style="fill:none;stroke:#000000;"/>
    <path clip-path="url(#p147713b037)" d="M 69.845564 224.504071 
L 240.183828 264.553834 
" style="fill:none;stroke:#000000;"/>
    <path clip-path="url(#p147713b037)" d="M 69.845564 224.504071 
L 29.656015 23.446166 
" style="fill:none;stroke:#000000;"/>
    <path clip-path="url(#p147713b037)" d="M 162.686538 122.289522 
L 230.759534 115.951681 
" style="fill:none;stroke:#000000;"/>
    <path clip-path="url(#p147713b037)" d="M 162.686538 122.289522 
L 240.183828 264.553834 
" style="fill:none;stroke:#000000;"/>
    <path clip-path="url(#p147713b037)" d="M 162.686538 122.289522 
L 112.916922 117.030462 
" style="fill:none;stroke:#000000;"/>
    <path clip-path="url(#p147713b037)" d="M 381.859777 142.24698 
L 402.343985 119.457721 
" style="fill:none;stroke:#000000;"/>
    <path clip-path="url(#p147713b037)" d="M 381.859777 142.24698 
L 387.467621 91.813944 
" style="fill:none;stroke:#000000;"/>
    <path clip-path="url(#p147713b037)" d="M 381.859777 142.24698 
L 240.183828 264.553834 
" style="fill:none;stroke:#000000;"/>
    <path clip-path="url(#p147713b037)" d="M 325.70345 210.749606 
L 361.920776 118.783482 
" style="fill:none;stroke:#000000;"/>
    <path clip-path="url(#p147713b037)" d="M 325.70345 210.749606 
L 240.183828 264.553834 
" style="fill:none;stroke:#000000;"/>
    <path clip-path="url(#p147713b037)" d="M 295.249741 121.480436 
L 230.759534 115.951681 
" style="fill:none;stroke:#000000;"/>
    <path clip-path="url(#p147713b037)" d="M 295.249741 121.480436 
L 361.920776 118.783482 
" style="fill:none;stroke:#000000;"/>
    <path clip-path="url(#p147713b037)" d="M 295.249741 121.480436 
L 29.656015 23.446166 
" style="fill:none;stroke:#000000;"/>
    <path clip-path="url(#p147713b037)" d="M 331.934388 93.162421 
L 402.343985 119.457721 
" style="fill:none;stroke:#000000;"/>
    <path clip-path="url(#p147713b037)" d="M 331.934388 93.162421 
L 387.467621 91.813944 
" style="fill:none;stroke:#000000;"/>
    <path clip-path="url(#p147713b037)" d="M 331.934388 93.162421 
L 112.916922 117.030462 
" style="fill:none;stroke:#000000;"/>
    <path clip-path="url(#p147713b037)" d="M 402.343985 119.457721 
L 361.920776 118.783482 
" style="fill:none;stroke:#000000;"/>
    <path clip-path="url(#p147713b037)" d="M 387.467621 91.813944 
L 361.920776 118.783482 
" style="fill:none;stroke:#000000;"/>
   </g>
   <g id="PathCollection_1">
    <defs>
     <path d="M 0 8.660254 
C 2.296726 8.660254 4.499694 7.747755 6.123724 6.123724 
C 7.747755 4.499694 8.660254 2.296726 8.660254 0 
C 8.660254 -2.296726 7.747755 -4.499694 6.123724 -6.123724 
C 4.499694 -7.747755 2.296726 -8.660254 0 -8.660254 
C -2.296726 -8.660254 -4.499694 -7.747755 -6.123724 -6.123724 
C -7.747755 -4.499694 -8.660254 -2.296726 -8.660254 0 
C -8.660254 2.296726 -7.747755 4.499694 -6.123724 6.123724 
C -4.499694 7.747755 -2.296726 8.660254 0 8.660254 
z
" id="m0869c59776" style="stroke:#1f78b4;"/>
    </defs>
    <g clip-path="url(#p147713b037)">
     <use style="fill:#1f78b4;stroke:#1f78b4;" x="30.980089" xlink:href="#m0869c59776" y="159.372637"/>
     <use style="fill:#1f78b4;stroke:#1f78b4;" x="69.845564" xlink:href="#m0869c59776" y="224.504071"/>
     <use style="fill:#1f78b4;stroke:#1f78b4;" x="162.686538" xlink:href="#m0869c59776" y="122.289522"/>
     <use style="fill:#1f78b4;stroke:#1f78b4;" x="381.859777" xlink:href="#m0869c59776" y="142.24698"/>
     <use style="fill:#1f78b4;stroke:#1f78b4;" x="325.70345" xlink:href="#m0869c59776" y="210.749606"/>
     <use style="fill:#1f78b4;stroke:#1f78b4;" x="295.249741" xlink:href="#m0869c59776" y="121.480436"/>
     <use style="fill:#1f78b4;stroke:#1f78b4;" x="331.934388" xlink:href="#m0869c59776" y="93.162421"/>
     <use style="fill:#1f78b4;stroke:#1f78b4;" x="230.759534" xlink:href="#m0869c59776" y="115.951681"/>
     <use style="fill:#1f78b4;stroke:#1f78b4;" x="402.343985" xlink:href="#m0869c59776" y="119.457721"/>
     <use style="fill:#1f78b4;stroke:#1f78b4;" x="387.467621" xlink:href="#m0869c59776" y="91.813944"/>
     <use style="fill:#1f78b4;stroke:#1f78b4;" x="361.920776" xlink:href="#m0869c59776" y="118.783482"/>
     <use style="fill:#1f78b4;stroke:#1f78b4;" x="240.183828" xlink:href="#m0869c59776" y="264.553834"/>
     <use style="fill:#1f78b4;stroke:#1f78b4;" x="112.916922" xlink:href="#m0869c59776" y="117.030462"/>
     <use style="fill:#1f78b4;stroke:#1f78b4;" x="29.656015" xlink:href="#m0869c59776" y="23.446166"/>
    </g>
   </g>
  </g>
 </g>
 <defs>
  <clipPath id="p147713b037">
   <rect height="266.4" width="410.4" x="10.8" y="10.8"/>
  </clipPath>
 </defs>
</svg>
